# xmcd CD database file
#
# Track frame offsets:
#	150
#	14040
#	35037
#	53325
#	72470
#	87102
#	99617
#	114267
#	129460
#	146935
#	166985
#
# Disc length: 2536 seconds
#
# Revision: 3
# Processed by: cddbd v1.5.2PL0 Copyright (c) Steve Scherf et al.
# Submitted via: CDex 1.79
#
DISCID=9709e60b
DTITLE=Jack Ingram - Electric
DYEAR=2002
DGENRE=Country
TTITLE0=Keep On Keepin' On
TTITLE1=Fool
TTITLE2=What Makes You Say
TTITLE3=One Thing
TTITLE4=Everybody
TTITLE5=One Lie Away
TTITLE6=We're All In This Together
TTITLE7=I Won't Go With Her
TTITLE8=You Never Leave
TTITLE9=Pete, Jesus And Me
TTITLE10=Goodnight Moon
EXTD=YEAR: 2002
EXTT0=
EXTT1=
EXTT2=
EXTT3=
EXTT4=
EXTT5=
EXTT6=
EXTT7=
EXTT8=
EXTT9=
EXTT10=
PLAYORDER=
